#define a3a71451423ec4d62dc9143d127b9a7c8nF9ELS2S07yBqXfJ_width 32
#define a3a71451423ec4d62dc9143d127b9a7c8nF9ELS2S07yBqXfJ_height 32
static const unsigned char SOS_bits[] U8X8_PROGMEM = {
  0x00, 0x00, 0x00, 0x00, 0x00, 0x00, 0x00, 0x00, 0x00, 0x00, 0x00, 0x00, 
  0x00, 0x00, 0x00, 0x00, 0x00, 0x80, 0x01, 0x00, 0x00, 0x40, 0x02, 0x00, 
  0x00, 0x20, 0x04, 0x00, 0x00, 0x20, 0x04, 0x00, 0x00, 0x90, 0x09, 0x00, 
  0x00, 0x88, 0x11, 0x00, 0x00, 0x84, 0x21, 0x00, 0x00, 0x84, 0x21, 0x00, 
  0x00, 0x82, 0x41, 0x00, 0x00, 0x01, 0x80, 0x00, 0x80, 0x80, 0x01, 0x01, 
  0x80, 0x80, 0x01, 0x01, 0x40, 0x00, 0x00, 0x02, 0x20, 0x00, 0x00, 0x04, 
  0xA0, 0xE7, 0xE7, 0x05, 0x90, 0x20, 0x24, 0x08, 0x88, 0x27, 0xE4, 0x11, 
  0x04, 0x24, 0x04, 0x21, 0x84, 0xE7, 0xE7, 0x21, 0x02, 0x00, 0x00, 0x40, 
  0xFE, 0xFF, 0xFF, 0x7F, 0x00, 0x00, 0x00, 0x00, 0x00, 0x00, 0x00, 0x00, 
  0x00, 0x00, 0x00, 0x00, 0x00, 0x00, 0x00, 0x00, 0x00, 0x00, 0x00, 0x00, 
  0x00, 0x00, 0x00, 0x00, 0x00, 0x00, 0x00, 0x00, };
